<svg class="logo" xmlns="http://www.w3.org/2000/svg" width="50mm" height="7mm" viewBox="0 0 467.71631 63.779533" id="logo" version="1.1"> <defs id="defs4" />
    <g  id="layer1" transform="translate(0,-988.58268)"><g id="g3395" transform="translate(-279.07857,623.84077)">
        <polygon class="logo" id="polygon3337" fill="#de0024" points="442.6,371.7 448,371.7 440.7,380.9 448.7,391.3 443.1,391.3 437.1,382.9 435,382.9 435,391.3 430.7,391.3 430.7,371.7 435,371.7 435,379.2 437.1,378.9 " /><g id="g3339">
        <path class="logo" fill="#de0024" id="path3341" d="m 466.7,372.1 c 1.3,0.5 2.4,1.3 3.3,2.2 0.9,0.9 1.6,2 2.1,3.2 0.5,1.3 0.8,2.6 0.8,4 0,1.4 -0.3,2.7 -0.8,3.9 -0.5,1.3 -1.2,2.3 -2.1,3.3 -0.9,0.9 -2,1.6 -3.3,2.2 -1.3,0.6 -2.7,0.8 -4.2,0.8 -1.5,0 -2.9,-0.3 -4.2,-0.8 -1.3,-0.5 -2.4,-1.3 -3.3,-2.2 -0.9,-0.9 -1.7,-2 -2.2,-3.2 -0.5,-1.3 -0.8,-2.6 -0.8,-4 0,-1.4 0.3,-2.7 0.8,-4 0.5,-1.3 1.2,-2.3 2.2,-3.2 0.9,-0.9 2,-1.6 3.3,-2.2 1.3,-0.6 2.7,-0.8 4.2,-0.8 1.5,0 2.9,0.3 4.2,0.8 m -6.8,3.6 c -0.7,0.3 -1.4,0.8 -1.9,1.3 -0.5,0.6 -0.9,1.2 -1.2,2 -0.3,0.8 -0.4,1.6 -0.4,2.4 0,0.9 0.1,1.7 0.4,2.5 0.3,0.8 0.7,1.4 1.2,2 0.5,0.6 1.2,1 1.9,1.3 0.7,0.3 1.6,0.5 2.5,0.5 1,0 1.8,-0.2 2.5,-0.5 0.8,-0.3 1.4,-0.8 1.9,-1.4 0.5,-0.6 0.9,-1.2 1.2,-2 0.2,-0.8 0.4,-1.6 0.4,-2.4 0,-0.9 -0.1,-1.7 -0.4,-2.5 -0.3,-0.8 -0.7,-1.5 -1.2,-2 -0.5,-0.6 -1.1,-1 -1.9,-1.3 -0.8,-0.3 -1.6,-0.5 -2.5,-0.5 -0.9,0.1 -1.7,0.3 -2.5,0.6" />
        <polygon class="logo" fill="#de0024" id="polygon3343" points="490.3,371.7 494.7,371.7 494.7,391.3 490.3,391.3 490.3,383.4 481.7,383.4 481.7,391.3 477.3,391.3 477.3,371.7 481.7,371.7 481.7,379.4 490.3,379.4 " />
        <path class="logo" fill="#de0024" id="path3345" d="m 512.7,375.8 c -0.9,-0.4 -1.9,-0.5 -2.9,-0.5 -1,0 -1.8,0.1 -2.6,0.4 -0.8,0.3 -1.4,0.7 -2,1.3 -0.6,0.6 -1,1.2 -1.3,2 -0.3,0.8 -0.4,1.6 -0.4,2.5 0,0.9 0.1,1.8 0.4,2.5 0.3,0.8 0.7,1.4 1.3,1.9 0.6,0.6 1.2,1 2,1.3 0.8,0.3 1.6,0.4 2.5,0.4 1.1,0 2.1,-0.2 3.1,-0.6 0.9,-0.4 1.8,-0.9 2.6,-1.7 l 2.5,3.1 c -2.2,2.1 -5,3.1 -8.4,3.1 -1.5,0 -2.9,-0.2 -4.2,-0.7 -1.3,-0.5 -2.3,-1.2 -3.3,-2 -0.9,-0.9 -1.6,-1.9 -2.1,-3.2 -0.5,-1.3 -0.8,-2.6 -0.8,-4.2 0,-1.4 0.2,-2.7 0.8,-4 0.5,-1.3 1.2,-2.3 2.1,-3.3 0.9,-0.9 2.1,-1.7 3.4,-2.2 1.3,-0.6 2.8,-0.8 4.5,-0.8 1.5,0 2.9,0.2 4.2,0.7 1.3,0.4 2.4,1.1 3.4,2 l -2.4,3.2 c -0.7,-0.4 -1.5,-0.9 -2.4,-1.2" />
        <polygon class="logo" fill="#de0024" id="polygon3347" points="532.3,391.3 528,391.3 528,375.7 521.3,375.7 521.3,371.7 539,371.7 539,375.7 532.3,375.7 " />
        <path class="logo" fill="#de0024" id="path3349" d="m 555.2,372.3 c 1,0.3 1.8,0.8 2.5,1.4 0.7,0.6 1.2,1.4 1.6,2.2 0.4,0.9 0.6,1.8 0.6,2.9 0,1.1 -0.2,2.1 -0.6,3 -0.4,0.9 -1,1.6 -1.7,2.2 -0.7,0.6 -1.6,1.1 -2.6,1.4 -1,0.4 -2.1,0.5 -3.2,0.5 l -4,0 0,5.3 -4.4,0 0,-19.5 8.7,0 c 1.1,0 2.2,0.2 3.1,0.6 m -3.5,9.8 c 1.2,0 2.1,-0.3 2.7,-0.9 0.7,-0.6 1,-1.4 1,-2.4 0,-1 -0.3,-1.7 -0.9,-2.3 -0.6,-0.6 -1.5,-0.9 -2.7,-0.9 l -4.1,0 0,6.4 4,0 z"/>
        <path class="logo" fill="#de0024" id="path3351" d="m 573.1,381.5 0.3,0 4,-9.8 4.9,0 -7.7,16.1 c -0.6,1.3 -1.3,2.2 -2.1,2.9 -0.8,0.6 -1.7,0.9 -2.8,0.9 -1.3,0 -2.5,-0.2 -3.6,-0.7 l 1,-3.7 c 0.3,0.1 0.6,0.2 0.9,0.3 0.3,0.1 0.6,0.1 0.8,0.1 1,0 1.6,-0.4 1.9,-1.1 l 0.2,-0.6 -8,-14.2 5.3,0 4.9,9.8 z" />
        <polygon class="logo" fill="#de0024" id="polygon3353" points="598.4,371.7 603.8,371.7 596.6,380.9 604.5,391.3 598.9,391.3 592.9,382.9 590.8,382.9 590.8,391.3 586.5,391.3 586.5,371.7 590.8,371.7 590.8,379.2 592.9,378.9 "/>
        <polygon class="logo" fill="#de0024" id="polygon3355" points="618.8,391.3 614.4,391.3 614.4,375.7 607.8,375.7 607.8,371.7 625.4,371.7 625.4,375.7 618.8,375.7 " />
        <polygon class="logo" fill="#de0024" id="polygon3357" points="643.1,391.3 643.1,379 634.1,391.3 629.8,391.3 629.8,371.7 634.2,371.7 634.2,384.7 643.6,371.7 647.4,371.7 647.4,391.3 "/>
        <path class="logo" fill="#de0024" id="path3359" d="m 666.5,373.2 c 1.2,1 1.8,2.2 1.8,3.9 0,0.8 -0.2,1.5 -0.5,2.2 -0.4,0.6 -0.8,1.1 -1.4,1.4 l 0,0.3 c 1,0.3 1.7,0.9 2.3,1.7 0.6,0.8 0.9,1.7 0.9,2.8 0,0.8 -0.1,1.5 -0.4,2.3 -0.3,0.7 -0.7,1.3 -1.3,1.8 -0.6,0.5 -1.3,0.9 -2.2,1.3 -0.9,0.3 -2,0.5 -3.2,0.5 l -9.4,0 0,-19.5 8.6,0 c 1.9,-0.2 3.6,0.3 4.8,1.3 m -4.9,6.2 c 0.7,0 1.3,-0.2 1.7,-0.5 0.4,-0.4 0.6,-0.9 0.6,-1.5 0,-1.3 -0.8,-2 -2.5,-2 l -4.3,0 0,4 4.5,0 z m 0.7,8.1 c 1.9,0 2.9,-0.8 2.9,-2.3 0,-0.7 -0.3,-1.3 -0.8,-1.7 -0.5,-0.4 -1.2,-0.6 -2.2,-0.6 l -5.1,0 0,4.5 5.2,0 z" />
        <polygon class="logo" fill="#de0024" id="polygon3361" points="686.9,371.7 691.3,371.7 691.3,391.3 686.9,391.3 686.9,383.4 678.3,383.4 678.3,391.3 673.9,391.3 673.9,371.7 678.3,371.7 678.3,379.4 686.9,379.4 "/>
        <path class="logo" fill="#de0024" id="path3363" d="m 701,377.7 3.7,0 c 1.1,0 2.2,0.1 3.1,0.5 1,0.3 1.7,0.7 2.4,1.3 0.6,0.6 1.2,1.3 1.5,2.2 0.4,0.8 0.6,1.8 0.6,2.9 0,1 -0.2,1.9 -0.6,2.8 -0.4,0.8 -0.9,1.5 -1.5,2.1 -0.7,0.6 -1.5,1 -2.4,1.4 -0.9,0.3 -1.9,0.5 -3,0.5 l -8.2,0 0,-19.5 4.4,0 0,5.8 z m 3.6,9.7 c 2.3,0 3.5,-1 3.5,-2.9 0,-1 -0.3,-1.7 -0.9,-2.2 -0.6,-0.5 -1.5,-0.7 -2.6,-0.7 l -3.6,0 0,5.7 3.6,0 z m 14.3,3.9 -4.4,0 0,-19.5 4.4,0 0,19.5 z" />
        <polygon class="logo" fill="#de0024" id="polygon3365" points="728.6,379.3 737.8,379.3 737.8,383.2 728.6,383.2 728.6,387.3 739.4,387.3 739.4,391.3 724.3,391.3 724.3,371.7 738.9,371.7 738.9,375.7 728.6,375.7 " />
        <path class="logo" fill="#de0024" id="path3367" d="m 442.5,402 c 1,0.3 1.8,0.8 2.5,1.4 0.7,0.6 1.2,1.4 1.6,2.2 0.4,0.9 0.6,1.8 0.6,2.9 0,1.1 -0.2,2.1 -0.6,3 -0.4,0.9 -1,1.6 -1.7,2.2 -0.7,0.6 -1.6,1.1 -2.6,1.4 -1,0.4 -2.1,0.5 -3.2,0.5 l -4,0 0,5.3 -4.4,0 0,-19.5 8.7,0 c 1.1,0 2.2,0.2 3.1,0.6 m -3.5,9.7 c 1.2,0 2.1,-0.3 2.7,-0.9 0.7,-0.6 1,-1.4 1,-2.4 0,-1 -0.3,-1.7 -0.9,-2.3 -0.6,-0.6 -1.5,-0.9 -2.7,-0.9 l -4.1,0 0,6.4 4,0 z" />
        <polygon class="logo" fill="#de0024" id="polygon3369" points="456,409 465.1,409 465.1,412.8 456,412.8 456,417 466.8,417 466.8,420.9 451.7,420.9 451.7,401.4 466.3,401.4 466.3,405.4 456,405.4 " />
        <polygon class="logo" fill="#de0024" id="polygon3371" points="481.8,401.4 486.1,401.4 486.1,417 492.1,417 492.1,401.4 496.4,401.4 496.4,420.9 471.5,420.9 471.5,401.4 475.8,401.4 475.8,417 481.8,417 " />
        <polygon class="logo" fill="#de0024" id="polygon3373" points="506.1,409 515.3,409 515.3,412.8 506.1,412.8 506.1,417 516.9,417 516.9,420.9 501.8,420.9 501.8,401.4 516.4,401.4 516.4,405.4 506.1,405.4 " />
        <polygon class="logo" fill="#de0024" id="polygon3375" points="534.6,401.4 539,401.4 539,420.9 534.6,420.9 534.6,413.1 526,413.1 526,420.9 521.6,420.9 521.6,401.4 526,401.4 526,409.1 534.6,409.1 " />
        <polygon class="logo" fill="#de0024" id="polygon3377" points="557.6,420.9 557.6,408.7 548.7,420.9 544.4,420.9 544.4,401.4 548.7,401.4 548.7,414.4 558.1,401.4 562,401.4 562,420.9 " />
        <path class="logo" fill="#de0024" id="path3379" d="m 579,420.9 0,-5.8 -3.7,0 -3.8,5.8 -5.4,0 5,-6.8 c -1.3,-0.5 -2.2,-1.2 -2.9,-2.2 -0.7,-1 -1.1,-2.3 -1.1,-3.6 0,-1 0.2,-2 0.6,-2.8 0.4,-0.9 0.9,-1.6 1.6,-2.2 0.7,-0.6 1.5,-1.1 2.4,-1.4 1,-0.3 2,-0.5 3.2,-0.5 l 8.5,0 0,19.5 -4.4,0 z m -6.6,-14.8 c -0.6,0.5 -0.9,1.3 -0.9,2.2 0,0.9 0.3,1.7 0.9,2.2 0.6,0.5 1.5,0.8 2.5,0.8 l 4,0 0,-5.9 -4.1,0 c -1,0 -1.8,0.2 -2.4,0.7" />
        <polygon class="logo" fill="#de0024" id="polygon3381" points="283.9,425.1 283.9,370.7 332.2,370.7 312,395.9 334.2,425.1 " />
        <rect class="logo" fill="#de0024" id="rect3383" height="54.5" width="23.299999" y="370.70001" x="339.60001" />
        <path class="logo" fill="#de0024" id="path3385" d="m 372,370.7 0,36.5 c 10.1,0 18.3,-8.2 18.3,-18.3 0,-10.1 -8.2,-18.2 -18.3,-18.2" />
        <path class="logo" fill="#de0024" id="path3387" d="m 399.3,416 c 0,5 -4.1,9.1 -9.1,9.1 -5,0 -9.1,-4.1 -9.1,-9.1 0,-5 4.1,-9.1 9.1,-9.1 5,0 9.1,4.1 9.1,9.1" />
    </g></g></g></svg>
