<svg xmlns="http://www.w3.org/2000/svg" width="164" height="80" viewBox="0 0 164 80"><path fill="#fff" d="M110.03 58.45h-1.11l-1.06-3.29-1.04 3.29h-1.11l-1.51-5.12h1.32l.85 3.24.95-3.24h1.17l.98 3.24.88-3.24h1.11zM112 58v-5h2v5zm6.81.45l-2.41-3.07v3.07h-1.09v-5.12h.93l2.41 3.09v-3.09h1.09v5.12zm2.53-5.12h.1l1.5-.02c2.03 0 2.85 1.18 2.85 2.54 0 1.43-.97 2.62-2.91 2.62l-1.42-.02h-.12zm1.16 1.1v2.93l.42.01c1 0 1.64-.55 1.64-1.52 0-.94-.69-1.44-1.63-1.44-.13 0-.29 0-.43.02-.15.02 0 0 0 0zm6.87-1.18c1.54 0 2.7 1.01 2.7 2.64a2.6 2.6 0 0 1-2.7 2.65c-1.55 0-2.71-1.02-2.71-2.65a2.59 2.59 0 0 1 2.71-2.64c1.61 0 0 0 0 0zm0 4.19c.96 0 1.46-.68 1.46-1.55 0-.93-.64-1.55-1.46-1.55-.85 0-1.47.62-1.47 1.55 0 .88.65 1.55 1.47 1.55.81 0 0 0 0 0zm8.98 1.01h-1.11l-1.06-3.29-1.05 3.29h-1.11l-1.5-5.12h1.31l.86 3.24.95-3.24h1.17l.98 3.24.87-3.24h1.12zm4.11-5.12h2.94v1.1h-1.78v1.08h1.56v1.1h-1.56v1.84h-1.16zM147 58v-5h1v5zm2.54-4.67h1.16v4.03h2.07v1.09h-3.23zm4.25 0h1.17l1.56 2.16 1.49-2.16h1.09v5.12h-1.16v-3.26l-1.42 2h-.16l-1.41-1.98v3.24h-1.16zm6.65 1.39c0-.79.63-1.47 1.65-1.47.65 0 1.17.22 1.49.56l-.62.88c-.23-.22-.4-.35-.77-.35-.32 0-.51.15-.51.38 0 .85 2.12.65 2.12 2.31 0 .9-.76 1.51-1.74 1.51-.69 0-1.48-.29-1.72-.84l.66-.8c.29.37.73.54 1.09.54.3 0 .47-.15.47-.39 0-.77-2.12-.67-2.12-2.33 0-1.65 0 0 0 0zM.85 36.92c0-2.36 1.87-4.43 4.92-4.43 1.96 0 3.53.66 4.5 1.69l-1.88 2.63c-.68-.63-1.18-1.03-2.31-1.03-.96 0-1.53.44-1.53 1.14 0 2.55 6.36 1.93 6.36 6.93 0 2.68-2.28 4.52-5.22 4.52-2.05 0-4.43-.88-5.16-2.52l1.98-2.39a4.25 4.25 0 0 0 3.26 1.62c.92 0 1.44-.46 1.44-1.18 0-2.3-6.36-2.02-6.36-6.98 0-4.95 0 0 0 0zM71 36v-3h3.47l-.13-.29h3.84s-.9-2.4 0 0l.1.29H84v3h-4.86a21.89 21.89 0 0 1-.93 12.09h-3.84A18.27 18.27 0 0 0 75.5 36zm48.65-3.51c4.64 0 8.1 3.05 8.1 7.94 0 4.65-3.46 7.94-8.1 7.94s-8.1-3.05-8.1-7.94c0-4.45 3.24-7.94 8.1-7.94 4.86 0 0 0 0 0zm0 12.59c2.9 0 4.4-2.06 4.4-4.65 0-2.81-1.94-4.65-4.4-4.65-2.53 0-4.4 1.84-4.4 4.65 0 2.63 1.96 4.65 4.4 4.65 2.44 0 0 0 0 0zm16.16-12.32h3.49v12.06h6.2v3.29h-9.69zm17.1 0h3.49v12.06h6.2v3.29h-9.69zM57.92 76.41a35.96 35.96 0 0 0 34.14-25.03h3.71c-4.78 16.5-19.94 28.6-37.85 28.6s-33.07-12.1-37.85-28.6h3.71a35.95 35.95 0 0 0 34.14 25.03s-15.94 0 0 0zm0-17.73c5.92 0 11.18-2.87 14.5-7.3h4.23a21.65 21.65 0 0 1-18.73 10.87 21.65 21.65 0 0 1-18.73-10.87h4.24c3.3 4.43 8.57 7.3 14.49 7.3 0 0-5.92 0 0 0zm7.07-12.09c-.91 1.04-2.9 1.78-4.97 1.78-4.72 0-7.99-3.16-7.99-7.94 0-4.41 2.72-7.94 7.97-7.94 2.03 0 3.75.7 4.66 1.6l-1.54 2.64a5.38 5.38 0 0 0-3.12-.95c-2.35 0-4.27 1.63-4.27 4.65a4.43 4.43 0 0 0 4.62 4.65c1.09 0 2.29-.35 3.31-1.12zM57.92 4.18a35.97 35.97 0 0 0-34.2 25.24h-3.7C24.71 12.81 39.92.61 57.91.61s33.2 12.2 37.91 28.81h-3.7A35.97 35.97 0 0 0 57.92 4.18s16.02 0 0 0zM93.79 40.3c0-2.6-.28-5.14-.8-7.59h3.62v.02l1.98-.02c4.16 0 5.64 2.09 5.64 4.91a4.67 4.67 0 0 1-2.57 4.44l4.44 6.05h-4.22l-3.71-5.38h-.91c-.11 1.82-.34 3.61-.69 5.36h-3.62c.55-2.51.84-5.12.84-7.79 0 0 0 2.6 0 0zm-70.94-7.59h.62s-4.64 0 0 0c4.63 0 6.16 2.44 6.16 5.09 0 2.74-2.11 5.15-5.64 5.15-.3 0-1.27 0-1.85-.05.13 1.77.38 3.5.75 5.19h-3.62a40.04 40.04 0 0 1-.04-15.38zm0 0c.52-2.44 0 0 0 0zm35.07-10.53c-5.9 0-11.13 2.85-14.44 7.24h-4.25a21.65 21.65 0 0 1 18.69-10.81c7.96 0 14.93 4.35 18.7 10.81h-4.25a18.08 18.08 0 0 0-14.45-7.24s5.9 0 0 0zM41.5 32.71l-.13.29H45v3h-4.66a18.28 18.28 0 0 0 .03 9H46v3h-4.57l.04.09h-3.83a21.9 21.9 0 0 1 .02-15.38h3.84s1.1-2.34 0 0zm-17.62 6.95c.91 0 2.05-.39 2.05-1.88 0-1.36-.87-1.78-2.12-1.78-.45 0-.8.02-1.5.05v-.07a36.42 36.42 0 0 0-.25 3.59c.5.05 1.34.09 1.82.09zM40 42v-3h5v3zm58.15-2.55c1.33 0 2.37-.49 2.37-1.78 0-.86-.43-1.67-2.11-1.67-.47 0-.74.02-1.3.03.11 1.13.19 2.27.21 3.42z"/></svg>