<?xml version="1.0" encoding="utf-8"?><svg width="259" height="167" viewBox="0 0 259 167" xmlns="http://www.w3.org/2000/svg" xmlns:xlink="http://www.w3.org/1999/xlink"><svg width="47" height="46" viewBox="-5 -5 47 46" id="close-button"><path fill="#fff" d="M.25 1.09L1.27.02l17.61 16.86L35.94.58l1.04 1.07-17.02 16.26L36.75 34l-1.02 1.07-16.84-16.12L1.06 35.98.02 34.9l17.8-17z"/></svg><svg class="blogo" width="60" height="17" viewBox="-5 -5 477.72 73.78" id="cs" x="47" y="46"><g transform="translate(-279.079 -364.742)"><path class="blogo" fill="#de0024" d="M442.6 371.7h5.4l-7.3 9.2 8 10.4h-5.6l-6-8.4H435v8.4h-4.3v-19.6h4.3v7.5l2.1-.3zM466.7 372.1c1.3.5 2.4 1.3 3.3 2.2.9.9 1.6 2 2.1 3.2.5 1.3.8 2.6.8 4s-.3 2.7-.8 3.9c-.5 1.3-1.2 2.3-2.1 3.3-.9.9-2 1.6-3.3 2.2-1.3.6-2.7.8-4.2.8s-2.9-.3-4.2-.8c-1.3-.5-2.4-1.3-3.3-2.2-.9-.9-1.7-2-2.2-3.2-.5-1.3-.8-2.6-.8-4s.3-2.7.8-4c.5-1.3 1.2-2.3 2.2-3.2.9-.9 2-1.6 3.3-2.2 1.3-.6 2.7-.8 4.2-.8s2.9.3 4.2.8m-6.8 3.6c-.7.3-1.4.8-1.9 1.3-.5.6-.9 1.2-1.2 2-.3.8-.4 1.6-.4 2.4 0 .9.1 1.7.4 2.5.3.8.7 1.4 1.2 2 .5.6 1.2 1 1.9 1.3.7.3 1.6.5 2.5.5 1 0 1.8-.2 2.5-.5.8-.3 1.4-.8 1.9-1.4.5-.6.9-1.2 1.2-2 .2-.8.4-1.6.4-2.4 0-.9-.1-1.7-.4-2.5-.3-.8-.7-1.5-1.2-2-.5-.6-1.1-1-1.9-1.3-.8-.3-1.6-.5-2.5-.5-.9.1-1.7.3-2.5.6M490.3 371.7h4.4v19.6h-4.4v-7.9h-8.6v7.9h-4.4v-19.6h4.4v7.7h8.6zM512.7 375.8c-.9-.4-1.9-.5-2.9-.5s-1.8.1-2.6.4c-.8.3-1.4.7-2 1.3-.6.6-1 1.2-1.3 2-.3.8-.4 1.6-.4 2.5 0 .9.1 1.8.4 2.5.3.8.7 1.4 1.3 1.9.6.6 1.2 1 2 1.3.8.3 1.6.4 2.5.4 1.1 0 2.1-.2 3.1-.6.9-.4 1.8-.9 2.6-1.7l2.5 3.1c-2.2 2.1-5 3.1-8.4 3.1-1.5 0-2.9-.2-4.2-.7-1.3-.5-2.3-1.2-3.3-2-.9-.9-1.6-1.9-2.1-3.2-.5-1.3-.8-2.6-.8-4.2 0-1.4.2-2.7.8-4 .5-1.3 1.2-2.3 2.1-3.3.9-.9 2.1-1.7 3.4-2.2 1.3-.6 2.8-.8 4.5-.8 1.5 0 2.9.2 4.2.7 1.3.4 2.4 1.1 3.4 2l-2.4 3.2c-.7-.4-1.5-.9-2.4-1.2M532.3 391.3H528v-15.6h-6.7v-4H539v4h-6.7zM555.2 372.3c1 .3 1.8.8 2.5 1.4.7.6 1.2 1.4 1.6 2.2.4.9.6 1.8.6 2.9 0 1.1-.2 2.1-.6 3-.4.9-1 1.6-1.7 2.2-.7.6-1.6 1.1-2.6 1.4-1 .4-2.1.5-3.2.5h-4v5.3h-4.4v-19.5h8.7c1.1 0 2.2.2 3.1.6m-3.5 9.8c1.2 0 2.1-.3 2.7-.9.7-.6 1-1.4 1-2.4s-.3-1.7-.9-2.3c-.6-.6-1.5-.9-2.7-.9h-4.1v6.4h4zM573.1 381.5h.3l4-9.8h4.9l-7.7 16.1c-.6 1.3-1.3 2.2-2.1 2.9-.8.6-1.7.9-2.8.9-1.3 0-2.5-.2-3.6-.7l1-3.7.9.3c.3.1.6.1.8.1 1 0 1.6-.4 1.9-1.1l.2-.6-8-14.2h5.3l4.9 9.8zM598.4 371.7h5.4l-7.2 9.2 7.9 10.4h-5.6l-6-8.4h-2.1v8.4h-4.3v-19.6h4.3v7.5l2.1-.3zM618.8 391.3h-4.4v-15.6h-6.6v-4h17.6v4h-6.6zM643.1 391.3V379l-9 12.3h-4.3v-19.6h4.4v13l9.4-13h3.8v19.6zM666.5 373.2c1.2 1 1.8 2.2 1.8 3.9 0 .8-.2 1.5-.5 2.2-.4.6-.8 1.1-1.4 1.4v.3c1 .3 1.7.9 2.3 1.7.6.8.9 1.7.9 2.8 0 .8-.1 1.5-.4 2.3-.3.7-.7 1.3-1.3 1.8-.6.5-1.3.9-2.2 1.3-.9.3-2 .5-3.2.5h-9.4v-19.5h8.6c1.9-.2 3.6.3 4.8 1.3m-4.9 6.2c.7 0 1.3-.2 1.7-.5.4-.4.6-.9.6-1.5 0-1.3-.8-2-2.5-2h-4.3v4h4.5zm.7 8.1c1.9 0 2.9-.8 2.9-2.3 0-.7-.3-1.3-.8-1.7-.5-.4-1.2-.6-2.2-.6h-5.1v4.5h5.2zM686.9 371.7h4.4v19.6h-4.4v-7.9h-8.6v7.9h-4.4v-19.6h4.4v7.7h8.6zM701 377.7h3.7c1.1 0 2.2.1 3.1.5 1 .3 1.7.7 2.4 1.3.6.6 1.2 1.3 1.5 2.2.4.8.6 1.8.6 2.9 0 1-.2 1.9-.6 2.8-.4.8-.9 1.5-1.5 2.1-.7.6-1.5 1-2.4 1.4-.9.3-1.9.5-3 .5h-8.2v-19.5h4.4v5.8zm3.6 9.7c2.3 0 3.5-1 3.5-2.9 0-1-.3-1.7-.9-2.2-.6-.5-1.5-.7-2.6-.7H701v5.7h3.6zm14.3 3.9h-4.4v-19.5h4.4v19.5zM728.6 379.3h9.2v3.9h-9.2v4.1h10.8v4h-15.1v-19.6h14.6v4h-10.3zM442.5 402c1 .3 1.8.8 2.5 1.4.7.6 1.2 1.4 1.6 2.2.4.9.6 1.8.6 2.9 0 1.1-.2 2.1-.6 3-.4.9-1 1.6-1.7 2.2-.7.6-1.6 1.1-2.6 1.4-1 .4-2.1.5-3.2.5h-4v5.3h-4.4v-19.5h8.7c1.1 0 2.2.2 3.1.6m-3.5 9.7c1.2 0 2.1-.3 2.7-.9.7-.6 1-1.4 1-2.4s-.3-1.7-.9-2.3c-.6-.6-1.5-.9-2.7-.9H435v6.4h4zM456 409h9.1v3.8H456v4.2h10.8v3.9h-15.1v-19.5h14.6v4H456zM481.8 401.4h4.3V417h6v-15.6h4.3v19.5h-24.9v-19.5h4.3V417h6zM506.1 409h9.2v3.8h-9.2v4.2h10.8v3.9h-15.1v-19.5h14.6v4h-10.3zM534.6 401.4h4.4v19.5h-4.4v-7.8H526v7.8h-4.4v-19.5h4.4v7.7h8.6zM557.6 420.9v-12.2l-8.9 12.2h-4.3v-19.5h4.3v13l9.4-13h3.9v19.5zM579 420.9v-5.8h-3.7l-3.8 5.8h-5.4l5-6.8c-1.3-.5-2.2-1.2-2.9-2.2-.7-1-1.1-2.3-1.1-3.6 0-1 .2-2 .6-2.8.4-.9.9-1.6 1.6-2.2.7-.6 1.5-1.1 2.4-1.4 1-.3 2-.5 3.2-.5h8.5v19.5H579zm-6.6-14.8c-.6.5-.9 1.3-.9 2.2 0 .9.3 1.7.9 2.2.6.5 1.5.8 2.5.8h4v-5.9h-4.1c-1 0-1.8.2-2.4.7M283.9 425.1v-54.4h48.3L312 395.9l22.2 29.2zM339.6 370.7h23.3v54.5h-23.3zM372 370.7v36.5c10.1 0 18.3-8.2 18.3-18.3 0-10.1-8.2-18.2-18.3-18.2M399.3 416c0 5-4.1 9.1-9.1 9.1s-9.1-4.1-9.1-9.1 4.1-9.1 9.1-9.1 9.1 4.1 9.1 9.1"/></g></svg><svg width="32" height="12" viewBox="-5 -5 32 12" id="indicator" x="107" y="63"><path fill="#838383" d="M.93 1.06V.64h20.23v.42z"/></svg><svg width="32" height="12" viewBox="-5 -5 32 12" id="indicator-active" x="139" y="75"><path fill="#f7f7f7" d="M.93 1.06V.64h20.23v.42z"/></svg><svg width="40" height="40" viewBox="-5 -5 40 40" id="menu-close" x="171" y="87"><path fill="#fff" d="M29.85 2.98L17.83 15l12.02 12.02-2.83 2.83L15 17.83 2.98 29.85.15 27.02 12.17 15 .15 2.98 2.98.15 15 12.17 27.02.15z"/></svg><svg width="48" height="40" viewBox="-5 -5 48 40" id="menu-icon" x="211" y="127"><path fill="#e00c2e" d="M0 4V0h38v4zm0 13v-4h38v4zm0 13v-4h38v4z"/></svg></svg>